<svg version="1.1" xmlns="http://www.w3.org/2000/svg" xmlns:xlink="http://www.w3.org/1999/xlink" class="spritemapSVG" style="display:none"><symbol viewBox="0 0 100 65.86" id="icon-arrow"><title>Untitled-1</title><path d="M99.72 31.53a3.66 3.66 0 0 0-.79-1.19L69.66 1.07a3.66 3.66 0 0 0-5.17 5.17l23 23H3.66a3.66 3.66 0 0 0 0 7.32h83.85l-23 23a3.66 3.66 0 1 0 5.17 5.17l29.25-29.21a3.67 3.67 0 0 0 .79-3.99z"/></symbol><symbol viewBox="0 0 50 50" id="icon-close-alt"><title>close-alt</title> <polyline stroke-miterlimit="10" points="37.5,12.5 25,25 50,50 "/> <polyline stroke-miterlimit="10" points="12.5,37.5 25,25 0,0 "/> </symbol><symbol viewBox="0 0 50 50" id="icon-close-left"><title>close-left</title> <polyline stroke-miterlimit="10" points="15,35 25,25 0,0 "/> </symbol><symbol viewBox="0 0 50 50" id="icon-close-right"><title>close-right</title> <polyline stroke-miterlimit="10" points="35,15 25,25 50,50 "/> </symbol><symbol viewBox="0 0 18.4 18.4" id="icon-close"><title>close</title> <line stroke-miterlimit="10" x1="0.7" y1="0.7" x2="17.7" y2="17.7"/> <line stroke-miterlimit="10" x1="0.7" y1="17.7" x2="17.7" y2="0.7"/> </symbol><symbol viewBox="0 0 12.7 28.3" id="icon-drag-arrows"><title>drag-arrows</title> <polyline stroke-miterlimit="10" points="12,7.1 6.4,1.4 0.7,7.1 "/> <polyline stroke-miterlimit="10" points="0.7,21.2 6.4,26.9 12,21.2 "/> </symbol><symbol viewBox="0 0 36.21 50" id="icon-drop"><title>drop</title><path d="M33.66 22.66C30 15.88 18.35 9.47 18.11.3V0v.4C17.75 9.53 6.23 15.91 2.55 22.65a18.1 18.1 0 1 0 33.66 9.24 18 18 0 0 0-2.55-9.23"/></symbol><symbol viewBox="0 0 8 16" id="icon-fb-logo"><title>fb-logo</title> <path d="M2.058,16V8.492H0.016V5.789h2.042c0,0,0-1.107,0-2.31C2.058,1.666,3.265,0,6.045,0
	c1.126,0,1.957,0.104,1.957,0.104L7.936,2.63c0,0-0.847-0.009-1.773-0.009c-1.003,0-1.164,0.448-1.164,1.194
	c0,0.589,0-1.255,0,1.974h3.018L7.885,8.492H4.998V16H2.058z"/> </symbol><symbol viewBox="0 0 26 22" id="icon-fullscreen"><title>fullscreen</title> <g> <g> <polyline stroke-miterlimit="10" points="7,1 1,1 1,7 		"/> <polyline stroke-miterlimit="10" points="1,15 1,21 7,21 		"/> </g> <g> <polyline stroke-miterlimit="10" points="25,7 25,1 19,1 		"/> <polyline stroke-miterlimit="10" points="19,21 25,21 25,15 		"/> </g> </g> </symbol><symbol viewBox="0 0 23 32" id="icon-ipad"><title>ipad</title> <g> <path d="M21.5,0H1.5C0.7,0,0,0.7,0,1.5v29C0,31.3,0.7,32,1.5,32h20.1c0.8,0,1.5-0.7,1.5-1.5v-29C23,0.7,22.3,0,21.5,0z M11.5,31
		c-0.4,0-0.7-0.3-0.7-0.7c0-0.4,0.3-0.7,0.7-0.7c0.4,0,0.7,0.3,0.7,0.7C12.2,30.7,11.9,31,11.5,31z M20.8,28.6H2.2v-26h18.6V28.6z"/> </g> </symbol><symbol viewBox="0 0 20 20" id="icon-loading_ring"><title>loading_ring</title> <circle stroke-miterlimit="10" cx="10" cy="10" r="9"/> </symbol><symbol viewBox="0 0 23 24" id="icon-play"><title>play</title> <polygon stroke-miterlimit="10" points="1,22 1,2 20,12 "/> </symbol><symbol viewBox="0 0 32 28" id="icon-rotate"><title>rotate</title> <g> <path d="M13.9,0c7.6,0,13.7,6.1,13.9,13.7H32l-6.3,7l-6.3-7h4.9C24.2,8,19.6,3.5,13.9,3.5C8.1,3.5,3.5,8.2,3.5,14
		c0,5.8,4.7,10.5,10.4,10.5c2.3,0,4.4-0.8,6.2-2l2.4,2.6c-2.4,1.9-5.3,3-8.6,3C6.2,28,0,21.7,0,14C0,6.3,6.2,0,13.9,0L13.9,0z"/> </g> </symbol><symbol viewBox="0 0 20 16" id="icon-temp-menu"><title>noun_menu_93427</title><desc>Created with Sketch.</desc> <!-- Generator: Sketch 52.6 (67491) - http://www.bohemiancoding.com/sketch -->   <g id="temp-menu-Page-2" fill-rule="evenodd"> <g id="temp-menu-Artboard-Copy-3" transform="translate(-1390.000000, -24.000000)"> <g id="temp-menu-noun_menu_93427" transform="translate(1390.000000, 24.000000)"> <rect id="temp-menu-Rectangle" x="0" y="0" width="22" height="2"/> <rect id="temp-menu-Rectangle" x="0" y="7" width="22" height="2"/> <rect id="temp-menu-Rectangle" x="0" y="14" width="22" height="2"/> </g> </g> </g> </symbol><symbol viewBox="0 0 20 16" id="icon-twitter-logo"><title>twitter-logo</title> <path d="M20,1.895c-0.736,0.321-1.527,0.538-2.356,0.635c0.846-0.499,1.498-1.291,1.803-2.234
	c-0.792,0.463-1.67,0.8-2.604,0.981C16.092,0.493,15.026,0,13.847,0c-2.267,0-4.104,1.809-4.104,4.04
	c0,0.316,0.036,0.625,0.106,0.921C6.441,4.792,3.417,3.185,1.394,0.74C1.039,1.337,0.838,2.03,0.838,2.77
	c0,1.401,0.724,2.64,1.825,3.363C1.99,6.112,1.356,5.93,0.804,5.628c0,0.016,0,0.032,0,0.05c0,1.958,1.415,3.591,3.292,3.96
	C3.75,9.73,3.389,9.779,3.014,9.779c-0.265,0-0.521-0.023-0.771-0.072c0.52,1.605,2.036,2.773,3.832,2.807
	c-1.403,1.082-3.173,1.729-5.096,1.729c-0.332,0-0.658-0.02-0.979-0.057C1.817,15.33,3.973,16,6.289,16
	c7.55,0,11.676-6.154,11.676-11.492c0-0.176-0.004-0.349-0.012-0.523C18.754,3.416,19.45,2.706,20,1.895z"/> </symbol></svg>