<svg xmlns="http://www.w3.org/2000/svg" viewBox="0 0 162.29 175.75">
    <path fill="#ffffff" d="M460.79,322.59L343,347.09l14.2,9.84,32.29-7,17.27,13.71-19.13,13.93,13.65,8.93,69.78-53.45Zm-42.31,32.59-11.31-9.08,34-7.44Z" transform="translate(-339.23 -210.78)"/>
    <path fill="#ffffff" d="M391.57,210.78l-52.33,88s4,22.14,4.64,24.77c0,0,1.12,6.71,3.85,11.17,2.38,3.88,9.1,6.15,15.66.68,0,0,22.43-17.94,34-56.15C397.42,279.22,406.53,252,391.57,210.78ZM368,311.12c-12.68,17.08-15.29,1.48-15.29,1.48-0.29-1.39-1.92-12-1.92-12l34.89-57.07C395.44,276.87,368,311.12,368,311.12Z" transform="translate(-339.23 -210.78)"/>
    <path fill="#ffffff" d="M501.52,305.89L459,227.49l-7.34,10,11.6,21.62s-6-.75-11.13,5.38c0,0-11.24,14.35,2.09,41.93,0,0,11,25.64,26.5,25.86,0,0,8.3.54,11.62-11.18a19.83,19.83,0,0,0,.78-6.79l2.52,2.78ZM480.62,316c-4.52,2.37-10.43-3.65-17.27-18-5.47-11.45-4.91-22.5.24-24.92,6-2.85,12.26,4.68,17.3,17.21C485.6,302,485.17,313.65,480.62,316Z" transform="translate(-339.23 -210.78)"/>
    <path fill="#ffffff" d="M453,252l-15.59,8.07s-4.39,16.47-7.52,21.16c0,0-5.8-8.86-6.68-12.71,0,0,17.82-22.47,16.14-37.79,0,0,.4-10.43-9.73-8.13,0,0-9.93,1.41-20.41,17.83,0,0-11.79,16.69-3.16,32.55,0,0-13.95,20.57-15.64,37.62,0,0-1.51,18.67,6.31,21.29,0,0,10.73,6.49,29.37-20.4l4,7,16.24-7.61s-8.54-16.08-9.56-17.17C436.75,293.65,451,265.91,453,252Zm-35.24-8.66c4.54-7.94,8.54-6.79,8.54-6.79,2.72,1,.6,6.48.6,6.48-1.07,5-9.07,16.12-9.07,16.12C413.36,251.53,417.75,243.32,417.75,243.32Zm-14.19,67.3c-5-8.23,7.77-26.54,7.77-26.54l8.26,15.78C410.29,318.05,403.56,310.63,403.56,310.63Z" transform="translate(-339.23 -210.78)"/>
</svg>