<?xml version="1.0" encoding="utf-8"?>
<!-- Generator: Adobe Illustrator 19.1.0, SVG Export Plug-In . SVG Version: 6.00 Build 0)  -->
<svg version="1.1" id="Layer_1" xmlns="http://www.w3.org/2000/svg" xmlns:xlink="http://www.w3.org/1999/xlink" x="0px" y="0px"
	 viewBox="0 0 98.7 25" style="enable-background:new 0 0 98.7 25;" xml:space="preserve">
<style type="text/css">
	.st0{fill:#FFFFFF;}
</style>
<g>
	<path class="st0" d="M7.1,10.4C7.2,10,7.4,9.7,7.7,9.5C7.9,9.3,8.4,9.2,9,9.2c0.5,0,0.9,0.1,1.1,0.3c0.2,0.2,0.4,0.5,0.4,1v0
		l-0.1,4.1h0l2.1-4.1c0.3-0.5,0.5-0.8,0.9-1c0.3-0.2,0.8-0.3,1.3-0.3c0.5,0,0.9,0.1,1.1,0.2c0.2,0.1,0.3,0.3,0.3,0.6
		c0,0.1,0,0.3-0.1,0.4l-1.8,6.9c-0.1,0.3-0.2,0.5-0.5,0.6c-0.2,0.1-0.5,0.2-0.8,0.2c-0.2,0-0.4-0.1-0.6-0.2
		c-0.2-0.1-0.2-0.3-0.2-0.5c0,0,0-0.1,0-0.1c0,0,0-0.1,0-0.1l1.6-6.1h0l-3.4,6.4c-0.1,0.1-0.2,0.3-0.3,0.4C10,18,9.8,18.1,9.5,18.1
		c-0.3,0-0.4-0.1-0.5-0.2c-0.1-0.1-0.1-0.2-0.1-0.4l0-6.4h0l-1.6,6.1c-0.1,0.3-0.2,0.5-0.5,0.6c-0.2,0.1-0.5,0.2-0.8,0.2
		c-0.2,0-0.4-0.1-0.6-0.2c-0.2-0.1-0.2-0.3-0.2-0.5c0,0,0-0.1,0-0.1c0,0,0-0.1,0-0.1L7.1,10.4z"/>
	<path class="st0" d="M21.8,12.9c-0.6-5.5-5.2-9.8-10.9-9.8C4.9,3.1,0,8,0,14c0,6,4.9,10.9,10.9,10.9c3.6,0,6.8-1.8,8.8-4.5
		c0.1,0,0.2,0,0.3,0c2.2,0,4-1.8,4-4C24,14.9,23.1,13.5,21.8,12.9z M17.6,19.6c-1.6,1.9-4,3.1-6.6,3.1c-4.8,0-8.7-3.9-8.7-8.7
		c0-4.8,3.9-8.7,8.7-8.7c4.3,0,7.8,3.1,8.5,7.2c-1.9,0.3-3.4,1.9-3.4,3.9C16.1,17.7,16.7,18.9,17.6,19.6z M20.1,18
		c-0.8,0-1.5-0.7-1.5-1.5c0-0.9,0.7-1.5,1.5-1.5c0.9,0,1.5,0.7,1.5,1.5C21.6,17.3,20.9,18,20.1,18z"/>
	<g>
		<rect x="74.1" y="14.2" class="st0" width="10.4" height="3.5"/>
		<path class="st0" d="M93.1,6.9h-1.3V5.6c0-3.1-2.5-5.6-5.6-5.6H68.9c-2.2,0-4.1,1.3-5,3.1L61.9,7L60,3.1C59.1,1.3,57.2,0,55,0
			c-2.2,0-4.1,1.3-5,3.1L48.1,7l-1.9-3.9c-0.9-1.8-2.8-3.1-5-3.1H27.3c-3.1,0-5.6,2.5-5.6,5.6v1.3v11.2v1.3c0,3.1,2.5,5.6,5.6,5.6
			c3.1,0,5.6-2.5,5.6-5.6v-1.3h4.8c1.1,0,2.2-0.3,3-0.9l2.4,4.7c0.9,1.8,2.8,3.1,5,3.1c2.2,0,4.1-1.3,5-3.1L55,18l1.9,3.9
			c0.9,1.8,2.8,3.1,5,3.1c2.2,0,4.1-1.3,5-3.1l0.2-0.4C68,23.5,70,25,72.3,25h13.8c3.1,0,5.6-2.5,5.6-5.6v-1.3h1.3
			c3.1,0,5.6-2.5,5.6-5.6C98.7,9.4,96.2,6.9,93.1,6.9z M93.1,14.2h-5.2v5.2c0,1-0.8,1.7-1.7,1.7H72.3c-1,0-1.7-0.8-1.7-1.7v-6.9
			c0-1,0.8-1.7,1.7-1.7h12.1V7.3H69.9l-6.4,12.9c-0.3,0.6-0.9,1-1.5,1c-0.7,0-1.3-0.4-1.5-1L55,9.4l-5.4,10.7c-0.3,0.6-0.9,1-1.5,1
			c-0.7,0-1.3-0.4-1.5-1L40.1,7.3h-11v3.5h8.7c1,0,1.7,0.8,1.7,1.7c0,1-0.8,1.7-1.7,1.7h-8.7v5.2c0,1-0.8,1.7-1.7,1.7
			c-1,0-1.7-0.8-1.7-1.7v-5.2v-3.5V5.6c0-1,0.8-1.7,1.7-1.7h13.8c0.7,0,1.3,0.4,1.5,1l5.4,10.7l5.4-10.7c0.3-0.6,0.9-1,1.6-1
			c0.7,0,1.3,0.4,1.5,1l5.4,10.7l5.4-10.7c0.3-0.6,0.9-1,1.6-1h17.3c1,0,1.7,0.8,1.7,1.7v5.2h5.2c1,0,1.7,0.8,1.7,1.7
			C94.8,13.5,94.1,14.2,93.1,14.2z"/>
	</g>
	<path class="st0" d="M21.2,11.3c0,0,0.1,0.3,0.4,0.2c0.2-0.1,0.2-0.2,0.3-0.7l0.2-0.2l0.1,3.6l-0.7,0.1l-0.3-2.9L21.2,11.3z"/>
</g>
</svg>
