<?xml version="1.0" encoding="utf-8"?>
<!-- Generator: Adobe Illustrator 19.0.0, SVG Export Plug-In . SVG Version: 6.00 Build 0)  -->
<svg version="1.1" xmlns="http://www.w3.org/2000/svg" xmlns:xlink="http://www.w3.org/1999/xlink" x="0px" y="0px"
	 viewBox="0 0 552.5 410.8" style="enable-background:new 0 0 552.5 410.8;" xml:space="preserve">
<style type="text/css">
	.st0{fill:#FFFFFF;}
</style>
<g id="Layer_1">
	<path class="st0" d="M140.2,231.4c0,6.8,5.4,12.2,12.2,12.2h8.3c6.8,0,12-5.3,12-12.2v-50.1c0-6.9-5.2-12.2-12-12.2h-8.3
		c-6.8,0-12.2,5.4-12.2,12.2V231.4"/>
	<path class="st0" d="M451.6,0.8H310c-2.6,0-6.3,1.5-8.2,3.4L154.7,151.3h6c19,0,31.5,12,31.5,30v50.1c0,17.9-12.5,30-31.5,30h-8.3
		c-19.1,0-31.5-12-31.5-30v-46.3l-70.3,70.3c-1.9,1.9-3.4,5.6-3.4,8.2l0,141.6c0,2.6,2.2,4.8,4.8,4.8h141.6c2.6,0,6.3-1.5,8.2-3.4
		l147-147H306c-1.2,0-1.7-0.5-1.7-1.7V154.7c0-1.2,0.5-1.7,1.7-1.7h59.8c1,0,1.7,0.5,1.7,1.7v14.4c0,1.2-0.5,1.7-1.7,1.7h-40.3
		c-1.2,0-1.7,0.5-1.7,1.7V195c0,1.2,0.5,1.7,1.7,1.7h33c1.2,0,1.7,0.5,1.7,1.7v14.4c0,1.2-0.5,1.7-1.7,1.7h-33
		c-1.2,0-1.7,0.5-1.7,1.7v24c0,1.2,0.5,1.7,1.7,1.7h40.3c0.3,0,0.5,0,0.7,0.1l86.6-86.6c1.9-1.9,3.4-5.6,3.4-8.2l0-141.6
		C456.4,2.9,454.3,0.8,451.6,0.8z M281.5,257.9c0,1.2-0.5,1.7-1.7,1.7h-14l-1.5-0.8l-34.7-68.1l0.8,67.2c0,1.2-0.5,1.7-1.7,1.7
		h-15.7c-1.2,0-1.7-0.5-1.7-1.7V154.7c0-1.2,0.5-1.7,1.7-1.7h14.2l1.5,0.9l34.5,68.7l-0.7-67.9c0-1.2,0.5-1.7,1.7-1.7h15.6
		c1,0,1.7,0.5,1.7,1.7V257.9"/>
	<g>
		<g>
			<path class="st0" d="M26.6,158.7h-7.7c-0.5,0-0.7,0.2-0.7,0.7v35.9c0,0.5-0.2,0.7-0.7,0.7h-6.7c-0.5,0-0.7-0.2-0.7-0.7v-35.9
				c0-0.5-0.2-0.7-0.7-0.7H1.6c-0.5,0-0.7-0.2-0.7-0.7v-6c0-0.5,0.2-0.7,0.7-0.7h25c0.4,0,0.7,0.2,0.7,0.7v6
				C27.3,158.5,27.1,158.7,26.6,158.7z"/>
			<path class="st0" d="M63.3,196h-6.7c-0.5,0-0.7-0.2-0.7-0.7v-17.5c0-0.5-0.2-0.7-0.7-0.7H42c-0.5,0-0.7,0.2-0.7,0.7v17.5
				c0,0.5-0.2,0.7-0.7,0.7h-6.7c-0.5,0-0.7-0.2-0.7-0.7V152c0-0.5,0.2-0.7,0.7-0.7h6.7c0.4,0,0.7,0.2,0.7,0.7v16.9
				c0,0.5,0.2,0.7,0.7,0.7h13.2c0.5,0,0.7-0.2,0.7-0.7V152c0-0.5,0.2-0.7,0.7-0.7h6.7c0.5,0,0.7,0.2,0.7,0.7v43.3
				C64,195.8,63.8,196,63.3,196z"/>
			<path class="st0" d="M97.6,196H72.5c-0.5,0-0.7-0.2-0.7-0.7V152c0-0.5,0.2-0.7,0.7-0.7h25.1c0.4,0,0.7,0.2,0.7,0.7v6
				c0,0.5-0.2,0.7-0.7,0.7H80.7c-0.5,0-0.7,0.2-0.7,0.7v9.4c0,0.5,0.2,0.7,0.7,0.7h13.8c0.5,0,0.7,0.2,0.7,0.7v6
				c0,0.5-0.2,0.7-0.7,0.7H80.7c-0.5,0-0.7,0.2-0.7,0.7v10.1c0,0.5,0.2,0.7,0.7,0.7h16.9c0.4,0,0.7,0.2,0.7,0.7v6
				C98.3,195.8,98.1,196,97.6,196z"/>
		</g>
		<g>
			<path class="st0" d="M409.3,226.5c0,3.3,3.3,4.3,8.2,6.6c7.6,3.5,11.1,7.4,11.1,14.4c0,7.5-5.2,12.6-13.2,12.6h-2.8
				c-4,0-7.1-1.1-9.2-3.3c-2.3-2.4-3.3-4.5-3.3-5.2c0-0.1,0.1-0.4,0.4-0.5l6.2-3.1c0.1-0.1,0.2-0.1,0.4-0.1c0.5,0,0.6,0.7,1.3,2.1
				c0.8,1.5,2.6,2.6,4.2,2.6h2.8c2.8,0,5.1-2.3,5.1-5.1c0-3.6-3-4.8-7.6-7c-7.8-3.8-11.8-7-11.8-14c0-7.5,5.3-12.6,13.2-12.6h1.1
				c3.3,0,5.8,0.7,8.1,2.3c2.8,2,4.5,5.2,4.5,6c0,0.3-0.1,0.4-0.4,0.6l-6.2,3.1c-0.1,0.1-0.3,0.1-0.4,0.1c-0.4,0-0.5-0.4-0.9-1.1
				c-1.3-2.3-2.6-3.5-4.8-3.5h-1.1C411.6,221.4,409.3,223.6,409.3,226.5z"/>
			<path class="st0" d="M464.2,259.4h-6.7c-0.5,0-0.7-0.2-0.7-0.7v-17.5c0-0.5-0.2-0.7-0.7-0.7h-13.2c-0.5,0-0.7,0.2-0.7,0.7v17.5
				c0,0.5-0.2,0.7-0.7,0.7h-6.7c-0.5,0-0.7-0.2-0.7-0.7v-43.3c0-0.5,0.2-0.7,0.7-0.7h6.7c0.4,0,0.7,0.2,0.7,0.7v16.9
				c0,0.5,0.2,0.7,0.7,0.7h13.2c0.5,0,0.7-0.2,0.7-0.7v-16.9c0-0.5,0.2-0.7,0.7-0.7h6.7c0.5,0,0.7,0.2,0.7,0.7v43.3
				C464.9,259.2,464.7,259.4,464.2,259.4z"/>
			<path class="st0" d="M488.4,260.1h-3.5c-8,0-13.2-5-13.2-12.6v-21c0-7.5,5.3-12.6,13.2-12.6h3.5c8,0,13.2,5,13.2,12.6v21
				C501.6,255.1,496.4,260.1,488.4,260.1z M493.5,226.5c0-2.9-2.2-5.1-5-5.1h-3.5c-2.8,0-5.1,2.3-5.1,5.1v21c0,2.8,2.3,5.1,5.1,5.1
				h3.5c2.8,0,5-2.2,5-5.1V226.5z"/>
			<path class="st0" d="M542.5,258.8c-0.1,0.4-0.4,0.6-0.7,0.6h-5.2c-0.4,0-0.6-0.1-0.7-0.5l-7.2-28.1l-7.1,28.1
				c-0.1,0.4-0.3,0.5-0.7,0.5h-5.2c-0.4,0-0.6-0.2-0.7-0.6l-9.4-43.3c0-0.1-0.1-0.2-0.1-0.3c0-0.4,0.3-0.6,0.8-0.6h7.2
				c0.4,0,0.6,0.2,0.7,0.6l5.2,28.9l6.7-29.1c0.1-0.4,0.3-0.5,0.7-0.5h3.6c0.4,0,0.6,0.1,0.7,0.5l6.7,29.1l5.3-28.9
				c0.1-0.4,0.4-0.6,0.7-0.6h7.2c0.5,0,0.8,0.2,0.8,0.6c0,0.1-0.1,0.2-0.1,0.3L542.5,258.8z"/>
		</g>
	</g>
</g>
<g id="Layer_2">
</g>
</svg>
