<?xml version="1.0" encoding="utf-8"?>
<!-- Generator: Adobe Illustrator 19.0.0, SVG Export Plug-In . SVG Version: 6.00 Build 0)  -->
<svg version="1.1"
	 id="svg3974" xmlns:svg="http://www.w3.org/2000/svg" xmlns:rdf="http://www.w3.org/1999/02/22-rdf-syntax-ns#" xmlns:sodipodi="http://sodipodi.sourceforge.net/DTD/sodipodi-0.dtd" xmlns:cc="http://creativecommons.org/ns#" xmlns:dc="http://purl.org/dc/elements/1.1/" xmlns:inkscape="http://www.inkscape.org/namespaces/inkscape" inkscape:output_extension="org.inkscape.output.svg.inkscape" sodipodi:docname="Webby Awards.svg" inkscape:version="0.46" sodipodi:version="0.32"
	 xmlns="http://www.w3.org/2000/svg" xmlns:xlink="http://www.w3.org/1999/xlink" x="0px" y="0px"
	 viewBox="9.614 5.826 368.527 211.25" enable-background="new 9.614 5.826 368.527 211.25" xml:space="preserve">
<defs>
	
	
		<inkscape:perspective  id="perspective3982" inkscape:vp_x="0 : 526.18109 : 1" sodipodi:type="inkscape:persp3d" inkscape:vp_y="0 : 1000 : 0" inkscape:vp_z="744.09448 : 526.18109 : 1" inkscape:persp3d-origin="372.04724 : 350.78739 : 1">
		</inkscape:perspective>
	
		<inkscape:perspective  id="perspective3991" inkscape:vp_x="0 : 526.18109 : 1" sodipodi:type="inkscape:persp3d" inkscape:vp_y="0 : 1000 : 0" inkscape:vp_z="744.09448 : 526.18109 : 1" inkscape:persp3d-origin="372.04724 : 350.78739 : 1">
		</inkscape:perspective>
</defs>
<sodipodi:namedview  id="base" inkscape:zoom="0.48272354" pagecolor="#ffffff" bordercolor="#666666" borderopacity="1.0" inkscape:cx="372.04724" objecttolerance="10" inkscape:cy="526.18109" gridtolerance="10000" guidetolerance="10" showgrid="false" inkscape:window-y="-4" inkscape:window-x="-4" inkscape:window-height="721" inkscape:document-units="px" inkscape:pageshadow="2" inkscape:window-width="1024" inkscape:current-layer="layer1" inkscape:pageopacity="0.0">
	</sodipodi:namedview>
<g>
	<path fill="#FFFFFF" d="M10.636,121.613v16.312C136.854,130.419,42.986,126.52,10.636,121.613z"/>
	<path fill="#FFFFFF" d="M10.636,148.565v16.018l1.055,0.264C107.849,155.972,80.248,152.737,10.636,148.565z"/>
	<path fill="#FFFFFF" d="M10.636,6.675v52.67c79.138-2.676,79.529-7.162,38.488-12.6l7.382-8.963
		c50.67,7.776,47.457,20.512,11.072,26.89c12.192,4.287,55.407,12.233,3.163,27.943c8.502,2.31,56.446,14.178-3.163,24.78
		c9.444,4.265,59.556,10.382,2.108,25.835c14.875,2.443,53.1,10.592,2.637,26.889c19.078,1.996,21.235,2.658,26.361,11.6v34.27
		h23.198V6.675H10.636z"/>
	<path fill="#FFFFFF" d="M10.636,96.833v16.345C34.378,108.508,142.748,106.613,10.636,96.833z"/>
	<path fill="#FFFFFF" d="M10.636,68.977v17.312C84.827,82.298,109.893,77.129,10.636,68.977z"/>
</g>
<path fill="#FFFFFF" d="M149.13,62.489h-12.658V60h28.012v2.489h-12.655v33.823h-2.699V62.489z"/>
<path fill="#FFFFFF" d="M171.333,60h2.698v16.808h23.24V60h2.698v36.312h-2.698V79.296h-23.24v17.016h-2.698V60z"/>
<path fill="#FFFFFF" d="M209.409,60h25.833v2.489h-23.135v14.266h20.801v2.491h-20.801v14.577h23.395v2.489h-26.094V60z"/>
<path fill="#FFFFFF" d="M138.349,117.184h12.05l7.174,23.809l7.936-23.924h9.818l7.933,23.924l7.174-23.809h11.817l-13.756,41.445
	h-9.936l-8.231-23.689l-8.288,23.689h-9.936L138.349,117.184z"/>
<path fill="#FFFFFF" d="M203.252,137.418v-0.156c0-12.367,8.846-22.152,21.372-22.152c14.561,0,21.291,10.725,21.291,23.17
	c0,0.939,0,2.035-0.077,3.055h-28.337c1.173,4.617,4.54,6.965,9.156,6.965c3.604,0,6.343-1.33,9.396-4.305l8.217,6.811
	c-4.069,5.164-9.939,8.609-18.315,8.609C212.649,159.414,203.252,150.492,203.252,137.418z M232.058,133.74
	c-0.547-4.699-3.363-7.674-7.434-7.674c-3.917,0-6.575,2.975-7.359,7.674H232.058z"/>
<path fill="#FFFFFF" d="M253.004,117.184h21.105c5.174,0,8.818,1.293,11.229,3.646c1.645,1.703,2.645,3.879,2.645,6.701v0.117
	c0,4.762-2.705,7.584-6.35,9.172c4.999,1.645,8.174,4.467,8.174,10.053v0.115c0,7.057-5.762,11.348-15.58,11.348h-21.224V117.184z
	 M276.754,129.883c0-2.293-1.82-3.527-5.171-3.527h-7.468v7.23h7.174c3.469,0,5.465-1.176,5.465-3.586V129.883z M272.816,141.58
	h-8.7v7.584h8.818c3.526,0,5.469-1.352,5.469-3.762v-0.117C278.403,143.051,276.636,141.58,272.816,141.58z"/>
<path fill="#FFFFFF" d="M298.599,117.184h21.105c5.174,0,8.818,1.293,11.229,3.646c1.645,1.703,2.645,3.879,2.645,6.701v0.117
	c0,4.762-2.705,7.584-6.35,9.172c4.999,1.645,8.17,4.467,8.17,10.053v0.115c0,7.057-5.759,11.348-15.576,11.348h-21.224V117.184z
	 M322.349,129.883c0-2.293-1.82-3.527-5.171-3.527h-7.468v7.23h7.174c3.465,0,5.465-1.176,5.465-3.586V129.883z M318.41,141.58h-8.7
	v7.584h8.818c3.526,0,5.468-1.352,5.468-3.762v-0.117C323.996,143.051,322.234,141.58,318.41,141.58z"/>
<path fill="#FFFFFF" d="M351.095,142.934l-15.696-25.75h12.994l8.464,14.99l8.524-14.99h12.76l-15.643,25.574v15.578h-11.402
	V142.934z"/>
<path fill="#FFFFFF" d="M156.969,175.922h2.594l16.91,36.572h-2.955l-4.617-10.168h-21.426l-4.617,10.168h-2.8L156.969,175.922z
	 M167.76,199.887l-9.544-21.008l-9.599,21.008H167.76z"/>
<path fill="#FFFFFF" d="M176.263,176.182h3.009l11.412,32.318l10.636-32.424h2.073L214.03,208.5l11.412-32.318h2.8l-13.175,36.572
	h-2.179l-10.636-31.541l-10.635,31.541h-2.179L176.263,176.182z"/>
<path fill="#FFFFFF" d="M245.824,175.949h2.594l16.91,36.57h-2.955l-4.617-10.166H236.33l-4.617,10.166h-2.8L245.824,175.949z
	 M256.615,199.914l-9.544-21.008l-9.599,21.008H256.615z"/>
<path fill="#FFFFFF" d="M271.57,176.182h15.252c4.462,0,8.042,1.4,10.221,3.578c1.712,1.713,2.749,4.15,2.749,6.744v0.104
	c0,6.068-4.513,9.547-10.636,10.375l11.983,15.512h-3.425l-11.567-15.043h-11.879v15.043h-2.698V176.182z M286.511,195.012
	c6.069,0,10.581-3.061,10.581-8.299v-0.105c0-4.875-3.836-7.938-10.426-7.938h-12.398v16.342H286.511z"/>
<path fill="#FFFFFF" d="M307.816,176.182h12.088c11.412,0,19.298,7.832,19.298,18.053v0.102c0,10.221-7.886,18.158-19.298,18.158
	h-12.088V176.182z M310.514,178.67v31.334h9.39c10.115,0,16.495-6.9,16.495-15.562v-0.105c0-8.609-6.38-15.666-16.495-15.666
	H310.514z"/>
<path fill="#FFFFFF" d="M344.178,207.203l1.764-2.023c3.998,3.684,7.68,5.394,13.022,5.394c5.444,0,9.18-3.06,9.18-7.209v-0.105
	c0-3.838-2.02-6.068-10.267-7.729c-8.714-1.764-12.247-4.721-12.247-10.221v-0.104c0-5.395,4.932-9.543,11.673-9.543
	c5.295,0,8.768,1.451,12.449,4.408l-1.709,2.127c-3.425-2.957-6.85-4.1-10.842-4.1c-5.343,0-8.869,3.062-8.869,6.848v0.105
	c0,3.838,1.973,6.172,10.578,7.936c8.402,1.711,11.936,4.721,11.936,10.012v0.104c0,5.861-5.032,9.908-12.037,9.908
	C353,213.012,348.535,211.094,344.178,207.203z"/>
</svg>
